<?xml version="1.0" encoding="UTF-8"?>
<svg version="1.1" xmlns="http://www.w3.org/2000/svg" width="64" height="64">
<path d="M0 0 C5.91562217 4.23169275 10.92719349 9.30508964 12.67578125 16.57421875 C13.68485512 25.5900744 13.15737358 33.13681557 7.67578125 40.57421875 C1.55860289 47.47599173 -6.71742315 51.97538587 -15.953125 52.8125 C-27.09497136 53.09438426 -36.03158429 50.1201231 -44.32421875 42.57421875 C-50.81641634 35.73109156 -51.96516446 29.293838 -51.73046875 20.08203125 C-50.78368519 11.90691934 -46.849619 6.13249471 -40.51171875 1.04296875 C-27.94312141 -7.39594661 -13.00377463 -7.97710544 0 0 Z M-42.1796875 10.3515625 C-46.61093308 15.33013533 -47.73981676 19.28891345 -47.671875 25.9375 C-46.95566639 31.3694192 -43.84954721 35.04889029 -40.07421875 38.82421875 C-30.41157784 44.97317206 -21.25443181 46.76051772 -9.99609375 44.359375 C-2.46236983 42.14551753 3.31582666 38.14529317 7.67578125 31.57421875 C9.34459842 26.56776725 9.77213001 21.2445786 7.734375 16.28125 C3.4292051 9.0879724 -2.4698234 5.21740442 -10.32421875 2.57421875 C-21.52583062 0.05883256 -33.73430799 2.26177791 -42.1796875 10.3515625 Z " fill="#FFF52F" transform="translate(51.32421875,8.42578125)"/>
<path d="M0 0 C0.66 0 1.32 0 2 0 C2.37125 1.216875 2.7425 2.43375 3.125 3.6875 C4.86245104 8.3097754 6.88995881 10.28737281 11 13 C13.72113503 13.86542699 13.72113503 13.86542699 16 14 C16 14.66 16 15.32 16 16 C14.7625 16.4125 13.525 16.825 12.25 17.25 C8.66206636 18.61924676 6.30253733 19.81187139 4 23 C2.72234735 26.63543901 2.72234735 26.63543901 2 30 C1.34 30 0.68 30 0 30 C-0.37125 28.783125 -0.7425 27.56625 -1.125 26.3125 C-2.86245104 21.6902246 -4.88995881 19.71262719 -9 17 C-11.72113503 16.13457301 -11.72113503 16.13457301 -14 16 C-14 15.34 -14 14.68 -14 14 C-12.7625 13.5875 -11.525 13.175 -10.25 12.75 C-6.66206636 11.38075324 -4.30253733 10.18812861 -2 7 C-0.72234735 3.36456099 -0.72234735 3.36456099 0 0 Z " fill="#FFF52F" transform="translate(31,17)"/>
</svg>
